<?xml version="1.0" encoding="UTF-8" standalone="no"?>
<!-- Created with Inkscape (http://www.inkscape.org/) -->

<svg
   xmlns:dc="http://purl.org/dc/elements/1.1/"
   xmlns:cc="http://creativecommons.org/ns#"
   xmlns:rdf="http://www.w3.org/1999/02/22-rdf-syntax-ns#"
   xmlns:svg="http://www.w3.org/2000/svg"
   xmlns="http://www.w3.org/2000/svg"
   xmlns:sodipodi="http://sodipodi.sourceforge.net/DTD/sodipodi-0.dtd"
   xmlns:inkscape="http://www.inkscape.org/namespaces/inkscape"
   width="95.446854mm"
   height="95.788338mm"
   viewBox="0 0 95.446854 95.788338"
   version="1.1"
   id="svg632"
   sodipodi:docname="borde.svg"
   inkscape:version="0.92.3 (2405546, 2018-03-11)">
  <defs
     id="defs626" />
  <sodipodi:namedview
     id="base"
     pagecolor="#ffffff"
     bordercolor="#666666"
     borderopacity="1.0"
     inkscape:pageopacity="0.0"
     inkscape:pageshadow="2"
     inkscape:zoom="1.4"
     inkscape:cx="-62.891106"
     inkscape:cy="188.98914"
     inkscape:document-units="mm"
     inkscape:current-layer="g6780"
     showgrid="false"
     inkscape:window-width="2560"
     inkscape:window-height="1025"
     inkscape:window-x="0"
     inkscape:window-y="27"
     inkscape:window-maximized="1"
     fit-margin-top="0"
     fit-margin-left="0"
     fit-margin-right="0"
     fit-margin-bottom="0" />
  <metadata
     id="metadata629">
    <rdf:RDF>
      <cc:Work
         rdf:about="">
        <dc:format>image/svg+xml</dc:format>
        <dc:type
           rdf:resource="http://purl.org/dc/dcmitype/StillImage" />
        <dc:title />
      </cc:Work>
    </rdf:RDF>
  </metadata>
  <g
     inkscape:label="Capa 1"
     inkscape:groupmode="layer"
     id="layer1"
     transform="translate(-19.556338,-29.123689)">
    <g
       id="g6780">
      <g
         id="g7598"
         style="opacity:0.98000004"
         inkscape:export-filename="/home/lyas/Imágenes/imagenes-card-memory/Card/back-card/borde-iz.png"
         inkscape:export-xdpi="0.18182001"
         inkscape:export-ydpi="0.18182001"
         transform="rotate(90,67.279764,77.017859)">
        <path
           d="m 20.764249,124.91203 c -0.32385,0 -0.585964,-0.26247 -0.585964,-0.58597 V 30.672384 l 0.585964,-0.585612 h 93.652971 c 0.3235,0 0.58597,0.261056 0.58597,0.585612 0,0.324555 -0.26247,0.585611 -0.58597,0.585611 H 21.350566 v 3.601861 c -0.595136,0.779639 -0.613481,1.887361 0,2.681111 v 86.785093 c 0,0.3235 -0.262819,0.58597 -0.586317,0.58597"
           style="fill:#3b3b38;fill-opacity:0.3372549;fill-rule:nonzero;stroke:none;stroke-width:0.03527778"
           id="path16"
           inkscape:connector-curvature="0"
           inkscape:export-filename="/home/lyas/Imágenes/imagenes-card-memory/borde_1.png"
           inkscape:export-xdpi="0.18182001"
           inkscape:export-ydpi="0.18182001" />
        <path
           d="m 29.093685,66.317049 c -1.559983,0 -3.036358,-0.49389 -4.260497,-1.44286 -0.168275,-0.13053 -0.330553,-0.268113 -0.486833,-0.405696 -2.047522,-1.830917 -2.981325,-4.473221 -2.56152,-7.246054 0.280812,-1.855612 1.139473,-3.527778 2.416175,-4.804834 0.706614,-0.709083 1.541639,-1.294694 2.478264,-1.721556 l 0.238831,-0.109361 c 0.112536,-0.05644 0.228953,-0.109361 0.348544,-0.162277 -0.106891,0.451555 -0.134055,0.92075 -0.07585,1.386416 h -0.0014 c -2.24932,1.030111 -3.816711,3.122084 -4.191714,5.595056 -0.356658,2.356556 0.432858,4.596693 2.166056,6.145389 0.135819,0.123471 0.276577,0.239887 0.421922,0.352777 1.004711,0.77964 2.222147,1.185334 3.512608,1.185334 0.386644,0 0.779992,-0.03528 1.176161,-0.109361 0.431447,-0.08114 0.838906,-0.1905 1.220611,-0.328083 v 1.291167 c -0.319969,0.09525 -0.652286,0.179916 -0.996244,0.243416 -0.472722,0.08819 -0.942622,0.130527 -1.405114,0.130527 m 3.573639,-0.832556 v -1.389944 c 1.145469,-0.702027 1.923697,-1.725083 2.227086,-2.9845 0.436033,-1.806223 -0.238831,-3.71475 -1.719439,-4.85775 -0.403931,-0.310443 -0.877711,-0.52564 -1.382183,-0.627943 0.6731,-0.0035 1.351138,-0.148168 1.987197,-0.448029 0.04868,0.03175 0.09701,0.06703 0.144286,0.105834 1.863372,1.439332 2.712155,3.838222 2.16288,6.117165 -0.431447,1.788583 -1.659113,3.227917 -3.419827,4.085167 m -2.777067,-3.005667 c -0.735189,0 -1.446742,-0.239887 -2.040466,-0.6985 -1.268237,-0.977193 -1.841853,-2.610554 -1.461206,-4.15925 0.323497,-1.312333 1.272822,-2.338915 2.624314,-2.885721 0.580672,0.416278 1.245305,0.691444 1.938514,0.814917 -0.179564,0.0035 -0.360539,0.02469 -0.540809,0.05644 -1.503891,0.264583 -2.536119,1.107723 -2.830336,2.307167 -0.264936,1.075973 0.134761,2.211916 1.018822,2.896306 0.376767,0.289277 0.82797,0.44097 1.293989,0.44097 0.09172,0 0.183798,-0.0035 0.276225,-0.01765 0.553861,-0.07056 1.048103,-0.35278 1.384653,-0.79375 0.125589,-0.15875 0.305858,-0.243417 0.487892,-0.243417 0.129822,0 0.260702,0.04233 0.372533,0.130527 0.110067,0.08467 0.183444,0.197556 0.217664,0.321027 -0.08185,-0.22225 -0.297392,-0.384527 -0.551039,-0.384527 -0.323497,0 -0.585964,0.261056 -0.585964,0.58561 v 1.22414 c -0.357011,0.194027 -0.751416,0.324556 -1.167694,0.377473 -0.14605,0.02117 -0.2921,0.02822 -0.437092,0.02822 m 1.888772,-8.082138 c -0.243064,0 -0.485422,-0.02469 -0.722841,-0.07408 3.44e-4,0 7.14e-4,0 7.14e-4,0 0.284692,0 0.566561,0.02469 0.842786,0.07408 -0.04022,0 -0.08043,0 -0.12065,0 m -3.393381,-3.104426 c 0.0056,-0.515056 0.159456,-1.019528 0.446264,-1.449917 0.914753,-0.282222 1.931105,-0.511528 2.991203,-0.673805 0.442383,0.278694 0.721077,0.670277 0.791633,1.132416 -1.54305,0.194028 -3.030361,0.543278 -4.2291,0.991306 m 5.451122,-1.114778 c -0.05644,-0.437444 -0.214136,-0.839611 -0.458611,-1.195917 0.282928,-0.02469 0.566561,-0.04233 0.8509,-0.05644 1.46438,-0.06703 2.720622,-0.310444 3.792361,-0.663222 -0.168628,0.525639 -0.362303,1.008944 -0.572206,1.446389 -0.940505,0.232833 -1.990372,0.388055 -3.161241,0.440972 -0.150284,0.0071 -0.30092,0.01764 -0.451203,0.02822 m 5.146322,-0.941917 c 0.180269,-0.479777 0.340783,-0.994833 0.47625,-1.548694 3.084689,-1.488722 4.140906,-3.77825 4.155722,-3.81 l 0.03492,-0.06703 c 0.312209,-0.518583 0.471664,-1.090083 0.491067,-1.658055 0.119239,0.680861 0.383117,1.322917 0.779286,1.883833 -0.06068,0.127 -0.127706,0.254 -0.201436,0.377472 -0.185208,0.391584 -1.667933,3.294945 -5.735814,4.822472 m 1.285875,-5.122333 c -0.106186,0 -0.213078,-0.0071 -0.319969,-0.01764 -0.0088,-0.0035 -0.01729,-0.0035 -0.02575,-0.0035 0.02963,-0.409223 0.07056,-0.818445 0.122061,-1.224139 0.01623,0.0035 0.03281,0.0071 0.04904,0.0071 0.05856,0.0071 0.11677,0.01058 0.174625,0.01058 0.511175,0 0.992717,-0.264584 1.258006,-0.705556 0.116064,-0.194028 0.318558,-0.299861 0.526344,-0.299861 0.107598,0 0.216606,0.02822 0.315736,0.08819 0.290336,0.176389 0.384175,0.550334 0.20955,0.843139 -0.491066,0.811389 -1.372305,1.30175 -2.309636,1.30175 m -1.539875,-0.479777 c -0.56903,-0.391584 -1.00965,-1.008945 -1.253419,-1.785056 -0.08749,-0.278694 -0.13582,-0.567972 -0.146756,-0.853722 0.182386,-0.465667 0.275873,-0.9525 0.279753,-1.442861 0.04763,-0.102306 0.1016,-0.204611 0.161572,-0.303389 0.556331,-0.903111 1.433689,-1.499306 2.399242,-1.728611 -0.211667,0.47625 -0.4064,1.001889 -0.580319,1.566333 -0.304095,0.204611 -0.570089,0.472722 -0.773642,0.804333 -0.276578,0.451556 -0.339725,1.04775 -0.168981,1.591028 0.06985,0.22225 0.160514,0.419806 0.26917,0.596195 -0.07832,0.511527 -0.140759,1.030111 -0.18662,1.55575 m 6.640336,-1.5875 c -0.05644,-0.271639 -0.08149,-0.553862 -0.07338,-0.839611 0.04939,0.275166 0.07408,0.557388 0.07338,0.839611 m -1.30175,-0.733778 c -0.192969,-0.917222 -0.752122,-1.760361 -1.617486,-2.286 -0.4318,-0.261056 -0.909814,-0.384528 -1.381125,-0.384528 -0.01023,0 -0.02046,0 -0.03069,0 0.128764,-0.345722 0.265641,-0.66675 0.409575,-0.959555 l 0.108655,-0.236361 c 0.526697,0.0635 1.04775,0.239888 1.529997,0.532694 0.563739,0.342194 1.03117,0.783167 1.39312,1.287639 -0.14852,0.366889 -0.262114,0.765528 -0.33655,1.185333 -0.05045,0.28575 -0.0755,0.575028 -0.0755,0.860778"
           style="fill:#3c3c3b;fill-opacity:0.33639143;fill-rule:nonzero;stroke:none;stroke-width:0.03527778"
           id="path18"
           inkscape:connector-curvature="0"
           inkscape:export-filename="/home/lyas/Imágenes/imagenes-card-memory/borde_1.png"
           inkscape:export-xdpi="0.18182001"
           inkscape:export-ydpi="0.18182001" />
        <path
           d="m 31.781852,55.624356 c -0.279048,0 -0.557037,-0.02469 -0.830439,-0.07408 -0.693209,-0.123477 -1.357842,-0.398643 -1.938514,-0.814921 -0.505178,-0.363361 -0.946855,-0.829028 -1.288697,-1.393472 -0.292453,-0.483306 -0.467431,-1.005417 -0.5334,-1.531056 -0.05821,-0.465666 -0.03104,-0.934861 0.07585,-1.386416 0.2286,-0.966612 0.823736,-1.845028 1.728611,-2.398889 7.14e-4,0 0.0018,-0.0035 0.0025,-0.0035 0.03634,0.0035 0.07232,0.0035 0.108656,0.0035 0.620183,0 1.235427,-0.144639 1.809396,-0.430389 0.2286,0.02117 0.456142,0.0635 0.678039,0.134055 0.776111,0.243417 1.392061,0.684389 1.78435,1.252361 0.244475,0.356306 0.402167,0.758473 0.458611,1.195917 0.0011,0.0071 0.0021,0.01764 0.0032,0.02469 0.125589,1.054805 -0.37853,2.084916 -1.283405,2.631722 -0.09878,0.05997 -0.207786,0.08819 -0.315384,0.08819 -0.208138,0 -0.411338,-0.105833 -0.526697,-0.299861 -0.174272,-0.289278 -0.08184,-0.66675 0.20955,-0.839611 0.490714,-0.296333 0.765881,-0.860778 0.697442,-1.432278 -0.0018,-0.01764 -0.0042,-0.03528 -0.0067,-0.04939 -0.07056,-0.462139 -0.34925,-0.853722 -0.791633,-1.132416 -0.174272,-0.105834 -0.374297,-0.197556 -0.596547,-0.268111 -0.201789,-0.0635 -0.410281,-0.09525 -0.616303,-0.09525 -0.34925,0 -0.689681,0.09172 -0.973667,0.264583 -0.331258,0.204611 -0.601486,0.469194 -0.804686,0.772583 -0.286808,0.430389 -0.440619,0.934861 -0.446263,1.449917 -0.0053,0.483305 0.119591,0.970139 0.386997,1.411111 0.524933,0.867833 1.366308,1.425222 2.28353,1.61925 0.237419,0.04939 0.479778,0.07408 0.722842,0.07408 0.04022,0 0.08043,0 0.12065,0 0.567972,-0.02117 1.137002,-0.179916 1.655586,-0.493889 l 0.06738,-0.03175 c 0.132997,-0.05997 2.370314,-1.114777 3.826581,-4.162777 0.209902,-0.437445 0.403577,-0.92075 0.572205,-1.446389 0.3429,-1.065389 0.583142,-2.314222 0.648053,-3.774722 0.01482,-0.28575 0.03457,-0.5715 0.05962,-0.853722 0.04586,-0.525639 0.108303,-1.044223 0.18662,-1.55575 0.162278,-1.058334 0.390878,-2.074334 0.673453,-2.991556 0.173919,-0.564444 0.368652,-1.090083 0.580319,-1.566333 0.05574,-0.123472 0.112183,-0.246945 0.170039,-0.363361 l 0.101953,-0.22225 c 0.428272,-0.938389 1.014236,-1.770945 1.72085,-2.480028 1.27671,-1.277054 2.94923,-2.134304 4.8059,-2.416526 0.436033,-0.0635 0.869243,-0.09878 1.296103,-0.09878 2.288117,0 4.406197,0.934861 5.94854,2.663472 0.1397,0.155222 0.274815,0.3175 0.405694,0.483305 1.231196,1.5875 1.697215,3.601861 1.312688,5.665611 -0.06527,0.352778 -0.149225,0.691445 -0.249767,1.019528 h -1.291167 c 0.140759,-0.388056 0.252942,-0.804333 0.334786,-1.241778 0.319616,-1.718028 -0.06209,-3.383139 -1.075619,-4.688416 -0.11289,-0.144639 -0.230013,-0.28575 -0.351015,-0.423334 -1.304925,-1.4605 -3.10021,-2.250722 -5.0419,-2.250722 -0.364066,0 -0.732718,0.02822 -1.104548,0.08467 -2.473677,0.373945 -4.564238,1.943806 -5.595054,4.191 l -3.44e-4,0.0035 -0.108656,0.236361 c -0.14396,0.292814 -0.280838,0.613842 -0.409602,0.959564 -0.449439,1.202972 -0.797277,2.688167 -0.993069,4.226278 -0.05151,0.405694 -0.09243,0.814916 -0.122061,1.224139 -0.01094,0.151694 -0.02046,0.303389 -0.02822,0.455083 -0.05186,1.160639 -0.207434,2.204861 -0.435681,3.139722 -0.135467,0.553861 -0.295981,1.068917 -0.47625,1.548694 -1.526117,4.067528 -4.431242,5.552723 -4.824942,5.739695 -0.124177,0.07055 -0.250472,0.137583 -0.378177,0.201083 -0.636059,0.299861 -1.314098,0.4445 -1.987198,0.44803 -0.0035,0 -0.0074,0 -0.01093,0 m 17.97507,-9.119306 c -1.821746,0 -3.581755,-0.839612 -4.72934,-2.324806 -0.03669,-0.04939 -0.07232,-0.09525 -0.107244,-0.144639 -0.396169,-0.560916 -0.660047,-1.202972 -0.779286,-1.883833 -0.04868,-0.275167 -0.07303,-0.557389 -0.07338,-0.839611 0,-0.28575 0.02505,-0.575028 0.0755,-0.860778 0.07444,-0.419805 0.18803,-0.818444 0.33655,-1.185333 0.547511,-1.351139 1.573388,-2.300111 2.88678,-2.624666 0.317852,-0.07761 0.639233,-0.112889 0.95744,-0.112889 1.233662,0 2.424641,0.567972 3.202162,1.576916 0.547865,0.709084 0.786341,1.591028 0.670983,2.4765 -0.05539,0.423333 -0.188383,0.8255 -0.39017,1.188861 h -1.350434 c -0.140406,0 -0.269171,0.04939 -0.370064,0.130528 0.02858,-0.03528 0.06103,-0.0635 0.09772,-0.09172 0.443442,-0.338666 0.724255,-0.832555 0.796221,-1.386416 0.07302,-0.560917 -0.07796,-1.118306 -0.425804,-1.569861 -0.542219,-0.702028 -1.3716,-1.100666 -2.229909,-1.100666 -0.221191,0 -0.4445,0.02822 -0.664985,0.08114 -1.201915,0.296333 -2.042936,1.326443 -2.308225,2.829277 -0.03175,0.183444 -0.05009,0.363361 -0.05539,0.543278 -0.0081,0.285749 0.01693,0.567972 0.07338,0.839611 0.104775,0.504472 0.3175,0.980722 0.629356,1.382888 0.912284,1.181806 2.3114,1.852084 3.758142,1.852084 0.365829,0 0.734483,-0.04586 1.099254,-0.130528 1.251656,-0.303389 2.271183,-1.072444 2.9718,-2.208389 h 1.390298 c -0.857602,1.749778 -2.289882,2.970389 -4.074232,3.400778 -0.460375,0.109361 -0.925687,0.162278 -1.38712,0.162278"
           style="fill:#3b3b38;fill-opacity:0.3372549;fill-rule:nonzero;stroke:none;stroke-width:0.03527778"
           id="path20"
           inkscape:connector-curvature="0"
           inkscape:export-filename="/home/lyas/Imágenes/imagenes-card-memory/borde_1.png"
           inkscape:export-xdpi="0.18182001"
           inkscape:export-ydpi="0.18182001" />
        <path
           d="m 47.150263,59.127439 c -0.567621,0 -1.238956,-0.22225 -1.944865,-0.772583 -2.828219,-2.20839 -4.81083,-6.790973 -4.89338,-6.981473 -0.09913,-0.232834 -0.04727,-0.500945 0.130175,-0.677334 0.117122,-0.116416 0.274108,-0.179916 0.433564,-0.179916 0.08149,0 0.163689,0.01764 0.241653,0.04939 0.193675,0.08467 4.774494,2.067277 6.981823,4.893027 1.055513,1.35114 0.908405,2.575277 0.295275,3.18911 -0.293158,0.292807 -0.72531,0.47978 -1.244245,0.47978 m -4.93007,-6.65339 c 0.797983,1.488723 2.14383,3.66536 3.739797,4.914194 0.469548,0.36689 0.892175,0.518583 1.194506,0.518583 0.163336,0 0.291042,-0.04586 0.372179,-0.127 0.231071,-0.229304 0.17004,-0.843137 -0.394404,-1.566333 v 0 c -1.247775,-1.598083 -3.424414,-2.942167 -4.912078,-3.739445"
           style="fill:#353532;fill-opacity:0.3372549;fill-rule:nonzero;stroke:none;stroke-width:0.03527778"
           id="path22"
           inkscape:connector-curvature="0"
           inkscape:export-filename="/home/lyas/Imágenes/imagenes-card-memory/borde_1.png"
           inkscape:export-xdpi="0.18182001"
           inkscape:export-ydpi="0.18182001" />
        <path
           d="m 38.651846,58.841689 c -0.757767,0 -1.391709,-0.52564 -1.543403,-1.277056 -0.320675,-1.601611 0.870656,-3.527778 1.007533,-3.742972 0.02434,-0.03528 0.05221,-0.07056 0.08326,-0.102306 0.113594,-0.112889 0.268464,-0.179917 0.432858,-0.179917 7.15e-4,0 0.0011,0 0.0018,0 0.208139,0 0.402519,0.105834 0.515408,0.282223 0.138289,0.215194 1.342673,2.148415 1.033992,3.742972 -0.146403,0.762 -0.759883,1.273526 -1.525058,1.277056 -0.0021,0 -0.0042,0 -0.0063,0 m -0.0149,-3.347862 c -0.240947,0.585612 -0.434622,1.284112 -0.325967,1.827389 0.05327,0.264583 0.254,0.292806 0.340431,0.292806 7.14e-4,0 0.0014,0 0.0021,0 0.100894,0 0.27693,-0.03528 0.325261,-0.282223 l 0.602191,0.116417 -0.602191,-0.116417 c 0.105833,-0.546806 -0.09455,-1.248833 -0.341842,-1.837972"
           style="fill:#353532;fill-opacity:0.3372549;fill-rule:nonzero;stroke:none;stroke-width:0.03527778"
           id="path24"
           inkscape:connector-curvature="0"
           inkscape:export-filename="/home/lyas/Imágenes/imagenes-card-memory/borde_1.png"
           inkscape:export-xdpi="0.18182001"
           inkscape:export-ydpi="0.18182001" />
        <path
           d="m 46.7615,50.487911 c -1.460146,0 -3.003902,-0.963084 -3.194754,-1.083028 -0.175684,-0.112889 -0.28187,-0.310445 -0.281517,-0.518584 0,-0.162277 0.06632,-0.321027 0.179564,-0.433916 0.03104,-0.02822 0.06562,-0.05645 0.103717,-0.08114 0.189088,-0.123472 1.710972,-1.061861 3.164415,-1.061861 0.194382,0 0.38735,0.01411 0.575733,0.05292 0.756357,0.151694 1.2827,0.790222 1.27988,1.548694 -0.0028,0.765528 -0.515763,1.379361 -1.277056,1.527528 -0.179917,0.03528 -0.364419,0.04939 -0.549982,0.04939 m -0.03175,-1.954389 c -0.477308,0 -1.019879,0.162277 -1.489779,0.356305 0.480483,0.201084 1.036109,0.370417 1.519767,0.370417 0.11077,0 0.217662,-0.0071 0.31891,-0.02822 0.09066,-0.01764 0.152752,-0.05292 0.19544,-0.09525 0.07267,-0.07056 0.08749,-0.165806 0.08749,-0.229306 7.94e-4,-0.08467 -0.02787,-0.289278 -0.294217,-0.342194 -0.107243,-0.02117 -0.220485,-0.03175 -0.337608,-0.03175"
           style="fill:#383835;fill-opacity:0.3372549;fill-rule:nonzero;stroke:none;stroke-width:0.03527778"
           id="path26"
           inkscape:connector-curvature="0"
           inkscape:export-filename="/home/lyas/Imágenes/imagenes-card-memory/borde_1.png"
           inkscape:export-xdpi="0.18182001"
           inkscape:export-ydpi="0.18182001" />
        <path
           d="m 32.667324,112.19262 v -3.52954 l 1.754011,1.76495 -1.754011,1.76459 m -1.172281,0 -1.754364,-1.76459 1.754364,-1.7646 v 3.52919"
           style="fill:#383835;fill-opacity:0.3372549;fill-rule:nonzero;stroke:none;stroke-width:0.03527778"
           id="path28"
           inkscape:connector-curvature="0"
           inkscape:export-filename="/home/lyas/Imágenes/imagenes-card-memory/borde_1.png"
           inkscape:export-xdpi="0.18182001"
           inkscape:export-ydpi="0.18182001" />
        <path
           d="m 32.667324,107.48445 v -3.52954 l 1.754011,1.76459 -1.754011,1.76495 m -1.172281,-2.6e-4 -1.754364,-1.7646 1.754364,-1.76459 v 3.52919"
           style="fill:#000000;fill-opacity:0;fill-rule:nonzero;stroke:none;stroke-width:0.03527778"
           id="path30"
           inkscape:connector-curvature="0"
           inkscape:export-filename="/home/lyas/Imágenes/imagenes-card-memory/borde_1.png"
           inkscape:export-xdpi="0.18182001"
           inkscape:export-ydpi="0.18182001" />
        <path
           d="m 32.667324,81.900656 v -3.529542 l 1.754011,1.764594 -1.754011,1.764948 m -1.172281,0 -1.754364,-1.764948 1.754364,-1.764594 v 3.529542"
           style="fill:#353532;fill-opacity:0.3372549;fill-rule:nonzero;stroke:none;stroke-width:0.03527778"
           id="path32"
           inkscape:connector-curvature="0"
           inkscape:export-filename="/home/lyas/Imágenes/imagenes-card-memory/borde_1.png"
           inkscape:export-xdpi="0.18182001"
           inkscape:export-ydpi="0.18182001" />
        <path
           d="m 32.667324,77.192483 v -3.529542 l 1.754011,1.764593 -1.754011,1.764949 m -1.172281,0 -1.754364,-1.764949 1.754364,-1.764593 v 3.529542"
           style="fill:#383835;fill-opacity:0.3372549;fill-rule:nonzero;stroke:none;stroke-width:0.03527778"
           id="path34"
           inkscape:connector-curvature="0"
           inkscape:export-filename="/home/lyas/Imágenes/imagenes-card-memory/borde_1.png"
           inkscape:export-xdpi="0.18182001"
           inkscape:export-ydpi="0.18182001" />
        <path
           d="m 32.081007,117.92879 c -0.323497,0 -0.585964,-0.26247 -0.585964,-0.58596 v -5.15021 -3.52919 -1.17933 -3.52919 -22.054254 -3.529542 -1.178631 -3.529542 -7.719835 -1.291167 -2.578806 -1.22414 c 0,-0.324554 0.262467,-0.58561 0.585964,-0.58561 0.253647,0 0.469194,0.162276 0.551039,0.384526 0.02258,0.0635 0.03528,0.13053 0.03528,0.201084 v 3.245556 1.389944 8.178448 3.529542 1.178631 3.529542 22.054254 3.52954 1.17863 3.52954 5.15021 c 0,0.32349 -0.262467,0.58596 -0.586317,0.58596"
           style="fill:#383835;fill-opacity:0.3372549;fill-rule:nonzero;stroke:none;stroke-width:0.03527778"
           id="path36"
           inkscape:connector-curvature="0"
           inkscape:export-filename="/home/lyas/Imágenes/imagenes-card-memory/borde_1.png"
           inkscape:export-xdpi="0.18182001"
           inkscape:export-ydpi="0.18182001" />
        <path
           d="m 100.03483,44.6953 -1.764598,-1.753306 h 3.529538 l -1.76494,1.753306 m 1.76494,-2.924528 h -3.529538 l 1.764598,-1.756833 1.76494,1.756833"
           style="fill:#353532;fill-opacity:0.3372549;fill-rule:nonzero;stroke:none;stroke-width:0.03527778"
           id="path38"
           inkscape:connector-curvature="0"
           inkscape:export-filename="/home/lyas/Imágenes/imagenes-card-memory/borde_1.png"
           inkscape:export-xdpi="0.18182001"
           inkscape:export-ydpi="0.18182001" />
        <path
           d="M 95.326652,44.6953 93.562058,42.941994 H 97.0916 L 95.326652,44.6953 M 97.0916,41.770772 h -3.529542 l 1.764594,-1.756833 1.764948,1.756833"
           style="fill:#353532;fill-opacity:0.3372549;fill-rule:nonzero;stroke:none;stroke-width:0.03527778"
           id="path40"
           inkscape:connector-curvature="0"
           inkscape:export-filename="/home/lyas/Imágenes/imagenes-card-memory/borde_1.png"
           inkscape:export-xdpi="0.18182001"
           inkscape:export-ydpi="0.18182001" />
        <path
           d="M 69.742857,44.6953 67.978263,42.941994 H 71.50745 L 69.742857,44.6953 m 1.764948,-2.924528 h -3.529542 l 1.764594,-1.756833 1.764948,1.756833"
           style="fill:#353532;fill-opacity:0.3372549;fill-rule:nonzero;stroke:none;stroke-width:0.03527778"
           id="path42"
           inkscape:connector-curvature="0"
           inkscape:export-filename="/home/lyas/Imágenes/imagenes-card-memory/borde_1.png"
           inkscape:export-xdpi="0.18182001"
           inkscape:export-ydpi="0.18182001" />
        <path
           d="M 65.034683,44.6953 63.269738,42.941994 H 66.79928 L 65.034683,44.6953 m 1.764597,-2.924528 h -3.529542 l 1.764945,-1.756833 1.764597,1.756833"
           style="fill:#353532;fill-opacity:0.3372549;fill-rule:nonzero;stroke:none;stroke-width:0.03527778"
           id="path44"
           inkscape:connector-curvature="0"
           inkscape:export-filename="/home/lyas/Imágenes/imagenes-card-memory/borde_1.png"
           inkscape:export-xdpi="0.18182001"
           inkscape:export-ydpi="0.18182001" />
        <path
           d="M 106.94962,42.941994 H 50.456496 c -0.32385,0 -0.585964,-0.261055 -0.585964,-0.585611 0,-0.183444 0.08396,-0.34925 0.2159,-0.455083 0.100893,-0.08114 0.229658,-0.130528 0.370064,-0.130528 h 1.350434 2.583391 1.291167 7.58825 3.529542 1.178983 3.529542 22.054253 3.529542 1.178632 3.529538 5.14985 c 0.32385,0 0.58632,0.261055 0.58632,0.585611 0,0.324556 -0.26247,0.585611 -0.58632,0.585611"
           style="fill:#383835;fill-opacity:0.3372549;fill-rule:nonzero;stroke:none;stroke-width:0.03527778"
           id="path46"
           inkscape:connector-curvature="0"
           inkscape:export-filename="/home/lyas/Imágenes/imagenes-card-memory/borde_1.png"
           inkscape:export-xdpi="0.18182001"
           inkscape:export-ydpi="0.18182001" />
        <path
           d="m 29.106385,48.025522 c -0.03634,0 -0.07232,0 -0.108655,-0.0035 -0.611011,-0.01414 -1.225197,-0.172888 -1.807634,-0.465694 -0.426861,-0.218722 -0.808919,-0.497416 -1.135944,-0.8255 -0.701322,-0.702027 -1.153231,-1.622777 -1.263297,-2.63525 l -0.01341,-0.123472 c -0.135466,-0.987778 -0.0056,-2.363611 0.349956,-3.661833 0.718256,-2.550583 -0.271286,-4.025194 -0.637822,-4.462639 0.220486,0.4445 0.231775,0.973667 0.01376,1.435806 -0.291042,0.613833 -0.911225,0.977194 -1.6637,0.977194 -0.01411,0 -0.02822,0 -0.04198,0 -0.537634,-0.0071 -1.064683,-0.261055 -1.391356,-0.649111 -0.01905,-0.02469 -0.03775,-0.04939 -0.05574,-0.07056 -0.61348,-0.79375 -0.595136,-1.901472 0,-2.681111 0.09208,-0.119945 0.198262,-0.232834 0.318207,-0.335139 0.473781,-0.405696 1.063626,-0.62089 1.67887,-0.62089 0.04798,0 0.09631,0 0.144286,0.0035 0.0011,0.02117 0.0025,0.0388 0.0039,0.05644 0.04798,0.620889 0.309386,1.188861 0.74295,1.622778 0.04127,0.03881 0.08361,0.08114 0.127353,0.119944 0.151694,0.15875 0.857602,0.818444 2.095852,1.17475 0.273756,0.948972 0.371123,2.211917 -0.0702,3.781778 -0.305152,1.114777 -0.425802,2.321277 -0.312561,3.146777 l 0.01587,0.141112 c 0.1143,1.044222 0.74542,1.954388 1.689453,2.434166 0.425803,0.215195 0.874889,0.324556 1.319389,0.324556 0.478013,0 0.950383,-0.123473 1.382183,-0.373945 0.0695,-0.0388 0.135466,-0.08114 0.20073,-0.123472 0.554214,-0.373944 0.9144,-0.970139 1.011767,-1.68275 0.138642,-1.023055 -0.183797,-1.859139 -0.881239,-2.293055 -0.297744,-0.186973 -0.635705,-0.278695 -0.973314,-0.278695 -0.363361,0 -0.727074,0.105833 -1.041047,0.3175 -0.288925,0.197556 -0.485422,0.522111 -0.53975,0.892528 -0.0829,0.564444 0.0822,1.023055 0.447675,1.252361 0.153459,0.09878 0.327378,0.144639 0.502003,0.144639 0.186267,0 0.372886,-0.05292 0.534458,-0.162278 0.287514,-0.197555 0.364772,-0.585611 0.172156,-0.871361 -0.202495,-0.303389 -0.122767,-0.709083 0.1778,-0.910167 0.112536,-0.07761 0.239889,-0.112889 0.366183,-0.112889 0.210608,0 0.417689,0.09878 0.544336,0.289278 0.596195,0.885472 0.360892,2.091972 -0.525639,2.691695 -0.383116,0.257527 -0.826205,0.388055 -1.269647,0.388055 -0.416277,0 -0.832202,-0.112889 -1.198738,-0.345722 -0.817387,-0.511528 -1.207559,-1.464028 -1.049162,-2.554111 0.107245,-0.733778 0.509764,-1.386417 1.104195,-1.788583 0.535164,-0.359834 1.155347,-0.543278 1.775177,-0.543278 0.138289,0 0.276578,0.01058 0.413809,0.02822 0.05715,0.437445 0.206022,0.864306 0.446969,1.252361 0.499886,0.804333 1.310922,1.315861 2.282825,1.478139 0.06773,0.409222 0.07267,0.846667 0.01058,1.30175 -0.145697,1.072444 -0.722841,2.017889 -1.582561,2.596444 -0.09384,0.0635 -0.184855,0.119945 -0.277283,0.172861 -0.07338,0.04233 -0.147814,0.08114 -0.222603,0.119945 -0.573969,0.28575 -1.189214,0.430389 -1.809397,0.430389 M 23.35048,35.216121 c -0.304094,0 -0.595136,0.105834 -0.829733,0.306917 -0.370064,0.3175 -0.4191,0.874889 -0.108656,1.245306 0.08855,0.105833 0.24765,0.176388 0.40887,0.179916 0.0064,0 0.0127,0 0.01905,0 0.238478,0 0.407811,-0.07761 0.476955,-0.225778 0.05574,-0.116416 0.03775,-0.257527 -0.04586,-0.356305 -0.23495,-0.275167 -0.202141,-0.691445 0.07373,-0.924278 0.122061,-0.105833 0.271639,-0.155222 0.420511,-0.15875 -0.100542,-0.03175 -0.206728,-0.05292 -0.315736,-0.0635 -0.03316,-0.0035 -0.06632,-0.0035 -0.09913,-0.0035"
           style="fill:#3b3b38;fill-opacity:0.3372549;fill-rule:nonzero;stroke:none;stroke-width:0.03527778"
           id="path48"
           inkscape:connector-curvature="0"
           inkscape:export-filename="/home/lyas/Imágenes/imagenes-card-memory/borde_1.png"
           inkscape:export-xdpi="0.18182001"
           inkscape:export-ydpi="0.18182001" />
        <path
           d="m 33.660393,43.45705 c -0.231069,0 -0.455789,-0.01764 -0.672747,-0.05292 -0.971903,-0.162278 -1.782939,-0.673806 -2.282825,-1.478139 -0.240947,-0.388055 -0.389819,-0.814916 -0.446969,-1.252361 -0.09913,-0.751417 0.07408,-1.534583 0.516466,-2.19075 0.401109,-0.592666 1.053042,-0.994833 1.788583,-1.100666 0.159456,-0.02469 0.316089,-0.03528 0.468842,-0.03528 0.888295,0 1.646061,0.384528 2.08527,1.083028 0.475191,0.754944 0.457905,1.725083 -0.04445,2.469444 -0.375709,0.553861 -0.989895,0.853722 -1.613959,0.853722 -0.371828,0 -0.747536,-0.105833 -1.077736,-0.328083 -0.300567,-0.204611 -0.380294,-0.610306 -0.1778,-0.913695 0.127,-0.186972 0.334081,-0.289277 0.545042,-0.289277 0.125941,0 0.253294,0.0388 0.36583,0.112888 0.106186,0.07056 0.227189,0.105834 0.347134,0.105834 0.202494,0 0.402166,-0.09525 0.524933,-0.278695 0.210961,-0.310444 0.218722,-0.716139 0.0194,-1.033639 -0.191205,-0.303388 -0.538692,-0.469194 -0.97543,-0.469194 -0.0889,0 -0.181681,0.0071 -0.277637,0.02117 -0.371475,0.05292 -0.69603,0.250473 -0.891116,0.53975 -0.409222,0.60325 -0.42545,1.393472 -0.04163,2.014361 0.369006,0.589139 1.023761,0.910166 1.836914,0.910166 0.147108,0 0.299155,-0.01058 0.455789,-0.03175 0.712611,-0.09525 1.310922,-0.455083 1.685572,-1.012472 0.04128,-0.0635 0.0829,-0.130528 0.121355,-0.197555 0.481189,-0.836084 0.498828,-1.820333 0.05009,-2.702277 -0.480122,-0.945442 -1.38923,-1.576914 -2.433099,-1.689803 l -0.12312,-0.01411 c -0.212372,-0.02822 -0.447675,-0.04233 -0.698853,-0.04233 -0.747183,0 -1.634419,0.123472 -2.472266,0.352777 -0.769408,0.218723 -1.465791,0.306917 -2.087739,0.306917 -0.644172,0 -1.208616,-0.09525 -1.692275,-0.232833 -1.23825,-0.356306 -1.944158,-1.016 -2.095852,-1.17475 -0.04375,-0.03881 -0.08608,-0.08114 -0.127353,-0.119945 -0.433564,-0.433917 -0.694972,-1.001889 -0.74295,-1.622778 -0.0014,-0.01764 -0.0028,-0.03528 -0.0039,-0.05645 -0.03669,-0.66675 0.181328,-1.312334 0.617361,-1.823861 0.434975,-0.508 1.056217,-0.769056 1.679928,-0.769056 0.497769,0 0.99695,0.165806 1.405114,0.508 0.399697,0.331611 0.642055,0.853722 0.650875,1.389945 0.01411,0.772583 -0.351367,1.411111 -0.9779,1.707444 -0.223661,0.105833 -0.46355,0.155222 -0.702028,0.155222 -0.253294,0 -0.504472,-0.05645 -0.733072,-0.169333 0.320675,0.268111 1.223433,0.892528 2.722739,0.892528 0.509763,0 1.087966,-0.07056 1.736019,-0.254 0.960966,-0.261056 1.961091,-0.402167 2.822927,-0.402167 0.306564,0 0.595489,0.01764 0.859014,0.05292 l 0.105128,0.01058 c 1.485547,0.162278 2.779536,1.058333 3.461103,2.398889 0.318558,0.627944 0.474486,1.291166 0.469547,1.947333 -0.0039,0.490361 -0.09737,0.977194 -0.279753,1.442861 -0.07514,0.1905 -0.165453,0.377472 -0.270933,0.560916 -0.05186,0.09172 -0.109009,0.183445 -0.168628,0.271639 -0.580319,0.864306 -1.526822,1.439334 -2.599972,1.5875 -0.213783,0.02822 -0.424039,0.04233 -0.629003,0.04233 M 25.787432,32.623244 c -0.252236,0 -0.503767,0.105833 -0.679803,0.313972 -0.221897,0.257528 -0.329494,0.589139 -0.303389,0.927805 0.0081,0.109362 0.03034,0.215195 0.06526,0.313973 0.0011,-0.148167 0.05221,-0.296334 0.156281,-0.419806 0.129469,-0.151694 0.313972,-0.229305 0.499533,-0.229305 0.150636,0 0.301978,0.05292 0.425803,0.15875 0.05997,0.04939 0.135819,0.07761 0.212725,0.07761 0.04833,0 0.09701,-0.01058 0.142875,-0.03528 0.150989,-0.07056 0.231069,-0.246945 0.226836,-0.493889 -0.0025,-0.148167 -0.06068,-0.289278 -0.154517,-0.384528 l -0.02752,-0.02469 c -0.163689,-0.137584 -0.364067,-0.204611 -0.564092,-0.204611"
           style="fill:#3b3b38;fill-opacity:0.3372549;fill-rule:nonzero;stroke:none;stroke-width:0.03527778"
           id="path50"
           inkscape:connector-curvature="0"
           inkscape:export-filename="/home/lyas/Imágenes/imagenes-card-memory/borde_1.png"
           inkscape:export-xdpi="0.18182001"
           inkscape:export-ydpi="0.18182001" />
        <path
           d="M 20.728266,123.36263 V 30.294911 h 93.067014 c 0.32349,0 0.58596,-0.261055 0.58596,-0.585611 0,-0.324555 -0.26247,-0.585611 -0.58596,-0.585611 H 20.142302 L 19.556338,29.7093 v 93.65333 c 0,0.32385 0.262114,0.58631 0.585964,0.58631 0.32385,0 0.585964,-0.26246 0.585964,-0.58631 v 0"
           style="fill:#f2c832;fill-opacity:0.99044584;fill-rule:nonzero;stroke:none;stroke-width:0.03527778"
           id="path286"
           inkscape:connector-curvature="0"
           inkscape:export-filename="/home/lyas/Imágenes/imagenes-card-memory/borde_1.png"
           inkscape:export-xdpi="0.18182001"
           inkscape:export-ydpi="0.18182001" />
        <path
           d="m 23.579063,51.454522 c 0.706614,-0.709084 1.541639,-1.294695 2.478264,-1.721556 l 0.238831,-0.109361 c 1.821744,-0.896056 4.560357,-1.520472 7.310966,-1.661583 7.20478,-0.324556 9.364486,-5.002389 9.386005,-5.04825 l 0.03493,-0.06703 c 0.985661,-1.636889 0.447322,-3.785305 -1.199797,-4.783666 -1.24707,-0.754944 -2.875492,-0.370417 -3.63467,0.864305 -0.276225,0.451556 -0.339725,1.04775 -0.168627,1.591028 0.252941,0.807861 0.780344,1.315861 1.447447,1.393472 0.573969,0.07056 1.137355,-0.204611 1.43263,-0.6985 0.176036,-0.289278 0.552098,-0.381 0.842081,-0.208139 0.290336,0.176389 0.384175,0.550333 0.20955,0.843139 -0.546806,0.903111 -1.576564,1.407583 -2.629958,1.284111 -1.150409,-0.137583 -2.074686,-0.977194 -2.472973,-2.247194 -0.275166,-0.878417 -0.1651,-1.848555 0.29457,-2.599972 1.109839,-1.802694 3.493911,-2.377722 5.316361,-1.27 2.213328,1.344083 2.941461,4.22275 1.632655,6.434666 -0.244475,0.518583 -2.740025,5.393972 -10.431285,5.736167 -2.549878,0.130527 -5.173839,0.723194 -6.843889,1.545166 l -0.25471,0.116419 c -2.249311,1.030111 -3.816703,3.122083 -4.191706,5.595055 -0.356658,2.356557 0.432859,4.596694 2.166056,6.14539 0.135819,0.12347 0.276225,0.239887 0.421922,0.352777 1.305983,1.012473 2.970742,1.393473 4.688416,1.075973 2.453569,-0.458613 4.137731,-1.866196 4.620331,-3.869973 0.436033,-1.806223 -0.238831,-3.71475 -1.719439,-4.85775 -0.760589,-0.585611 -1.768475,-0.821972 -2.764367,-0.645583 -1.504244,0.264583 -2.536119,1.104193 -2.830336,2.307166 -0.264936,1.075973 0.134762,2.211917 1.018823,2.896307 0.45085,0.34572 1.008591,0.497416 1.570213,0.423333 0.553861,-0.07056 1.048103,-0.35278 1.384653,-0.79375 0.215194,-0.275167 0.591961,-0.32103 0.860425,-0.11289 0.268464,0.20461 0.318911,0.58914 0.112889,0.85725 -0.538692,0.702027 -1.320095,1.153584 -2.199922,1.266473 -0.886531,0.116417 -1.766711,-0.123473 -2.477558,-0.670279 -1.268236,-0.977194 -1.841853,-2.610554 -1.461206,-4.15925 0.410986,-1.672166 1.834445,-2.875138 3.808941,-3.224388 1.334911,-0.236361 2.693459,0.08819 3.726745,0.885472 1.863372,1.435806 2.712155,3.838222 2.16288,6.117166 -0.591608,2.455333 -2.680758,4.243916 -5.588352,4.787196 -2.066572,0.384527 -4.078817,-0.08114 -5.665611,-1.312333 -0.168275,-0.134057 -0.330553,-0.268113 -0.486833,-0.405697 -2.047523,-1.830916 -2.981325,-4.47322 -2.56152,-7.246053 0.280811,-1.855612 1.139472,-3.527779 2.416175,-4.804834"
           style="fill:#f2c831;fill-opacity:0.99215686;fill-rule:nonzero;stroke:none;stroke-width:0.03527778"
           id="path288"
           inkscape:connector-curvature="0"
           inkscape:export-filename="/home/lyas/Imágenes/imagenes-card-memory/borde_1.png"
           inkscape:export-xdpi="0.18182001"
           inkscape:export-ydpi="0.18182001" />
        <path
           d="m 41.54039,33.491078 c 1.276703,-1.277056 2.949222,-2.134306 4.805892,-2.416528 2.773539,-0.419805 5.414433,0.515056 7.244643,2.561167 0.1397,0.15875 0.274815,0.321028 0.405342,0.486833 1.231548,1.5875 1.697566,3.601861 1.31304,5.665611 -0.541161,2.906889 -2.33045,4.998861 -4.787194,5.591527 -2.277533,0.546806 -4.67854,-0.299861 -6.116462,-2.162527 -0.79763,-1.033639 -1.120069,-2.395361 -0.884414,-3.728861 0.348192,-1.972028 1.553281,-3.39725 3.22333,-3.81 1.548341,-0.377472 3.18135,0.194028 4.159604,1.464028 0.547862,0.709083 0.786342,1.591028 0.670984,2.4765 -0.114655,0.878416 -0.563034,1.658055 -1.265415,2.197805 -0.268817,0.208139 -0.65405,0.15875 -0.860425,-0.112889 -0.206727,-0.268111 -0.160515,-0.649111 0.11289,-0.85725 0.443441,-0.338666 0.724252,-0.832555 0.796218,-1.386416 0.07302,-0.560917 -0.07797,-1.118306 -0.425802,-1.569861 -0.681921,-0.885472 -1.818216,-1.284111 -2.895248,-1.019528 -1.201561,0.296333 -2.042583,1.326444 -2.307872,2.829277 -0.175683,0.998362 0.06033,2.003778 0.647347,2.765778 1.143,1.481667 3.049765,2.155472 4.857398,1.721556 2.002719,-0.483306 3.412419,-2.169584 3.868912,-4.621389 0.319617,-1.718027 -0.06244,-3.383139 -1.07597,-4.688416 -0.112538,-0.144639 -0.229658,-0.28575 -0.350663,-0.423334 -1.5494,-1.732139 -3.789892,-2.522361 -6.146445,-2.166055 -2.474032,0.373944 -4.56424,1.943805 -5.595057,4.194528 l -0.109361,0.236361 c -0.829027,1.686277 -1.421341,4.310944 -1.552575,6.865055 -0.343605,7.687027 -5.218641,10.184694 -5.736872,10.424583 -2.211563,1.312333 -5.091288,0.582083 -6.43396,-1.629834 -1.105606,-1.823861 -0.532695,-4.212166 1.271058,-5.316361 0.7493,-0.462138 1.72085,-0.5715 2.598561,-0.296333 1.268941,0.398639 2.108552,1.322917 2.246136,2.472972 0.125236,1.054806 -0.378531,2.084917 -1.283406,2.631722 -0.290336,0.172862 -0.667102,0.08114 -0.841727,-0.211666 -0.174625,-0.289278 -0.0822,-0.66675 0.209197,-0.839611 0.490714,-0.296334 0.76588,-0.860778 0.697441,-1.435806 -0.07973,-0.66675 -0.58808,-1.192389 -1.394883,-1.446389 -0.543983,-0.169333 -1.138766,-0.105833 -1.589969,0.169334 -1.235075,0.758472 -1.620308,2.388305 -0.8636,3.633611 0.999419,1.647472 3.144661,2.187222 4.782255,1.199444 l 0.06738,-0.03175 c 0.190852,-0.08819 4.727222,-2.2225 5.046838,-9.383889 0.141817,-2.755194 0.766234,-5.492749 1.67005,-7.330721 l 0.101953,-0.22225 c 0.428272,-0.938389 1.013883,-1.770945 1.72085,-2.480028"
           style="fill:#f2c831;fill-opacity:0.99215686;fill-rule:nonzero;stroke:none;stroke-width:0.03527778"
           id="path290"
           inkscape:connector-curvature="0"
           inkscape:export-filename="/home/lyas/Imágenes/imagenes-card-memory/borde_1.png"
           inkscape:export-xdpi="0.18182001"
           inkscape:export-ydpi="0.18182001" />
        <path
           d="m 46.99363,54.872938 -0.0046,0.0071 z m -0.0889,1.943805 c 0.231068,-0.229304 0.170037,-0.843137 -0.394407,-1.566332 v 0 c -1.247775,-1.598084 -3.424413,-2.942167 -4.911725,-3.739445 0.797631,1.488722 2.143478,3.665361 3.739445,4.914193 0.723195,0.560917 1.335615,0.624417 1.566687,0.391584 z m -7.084837,-7.083777 c 0.177447,-0.176389 0.444853,-0.229305 0.675217,-0.130528 0.194027,0.08467 4.774847,2.067278 6.982178,4.893028 1.055158,1.35114 0.908402,2.575277 0.295275,3.18911 -0.613481,0.613833 -1.83762,0.762 -3.189112,-0.292804 -2.828219,-2.208389 -4.81083,-6.790973 -4.89338,-6.985 -0.09913,-0.229306 -0.04727,-0.497417 0.129822,-0.673806"
           style="fill:#f2c831;fill-opacity:1;fill-rule:nonzero;stroke:none;stroke-width:0.03527778"
           id="path292"
           inkscape:connector-curvature="0"
           inkscape:export-filename="/home/lyas/Imágenes/imagenes-card-memory/borde_1.png"
           inkscape:export-xdpi="0.18182001"
           inkscape:export-ydpi="0.18182001" />
        <path
           d="m 38.959115,56.485133 -0.602191,-0.116417 c 0.105833,-0.546807 -0.09455,-1.248833 -0.341842,-1.837972 -0.240947,0.585611 -0.434622,1.284112 -0.325967,1.827389 0.05362,0.26811 0.257528,0.296333 0.342547,0.292806 0.100895,0 0.277284,-0.03528 0.325262,-0.282223 z m -1.38183,-3.728861 c 0.113594,-0.112889 0.268464,-0.179917 0.432858,-0.179917 0.209197,0 0.404283,0.105833 0.517172,0.282222 0.138289,0.215195 1.342672,2.148417 1.033992,3.742972 -0.146403,0.762 -0.759883,1.277057 -1.525058,1.277057 -0.760589,0.0035 -1.397706,-0.522113 -1.549753,-1.280584 -0.320675,-1.598084 0.870655,-3.52425 1.007533,-3.739445 0.02434,-0.0388 0.05221,-0.07056 0.08326,-0.102305"
           style="fill:#f3c930;fill-opacity:1;fill-rule:nonzero;stroke:none;stroke-width:0.03527778"
           id="path294"
           inkscape:connector-curvature="0"
           inkscape:export-filename="/home/lyas/Imágenes/imagenes-card-memory/borde_1.png"
           inkscape:export-xdpi="0.18182001"
           inkscape:export-ydpi="0.18182001" />
        <path
           d="m 46.65214,48.173688 c 0.07267,-0.07055 0.08749,-0.165805 0.08749,-0.229305 2.64e-4,-0.08467 -0.02787,-0.289278 -0.294217,-0.342195 -0.54469,-0.109361 -1.242484,0.08467 -1.82739,0.324556 0.59055,0.246944 1.295048,0.448028 1.838677,0.342194 0.09066,-0.01764 0.153107,-0.05292 0.19544,-0.09525 z M 42.842846,47.4893 c 0.03104,-0.03175 0.06562,-0.05645 0.103364,-0.08114 0.214841,-0.137584 2.141713,-1.329973 3.740503,-1.008945 0.756354,0.151695 1.2827,0.790222 1.279877,1.548695 -0.0028,0.765527 -0.51576,1.379361 -1.276702,1.527527 -1.595967,0.306917 -3.529895,-0.896055 -3.744737,-1.033638 -0.176036,-0.116417 -0.282222,-0.310445 -0.281869,-0.518584 0,-0.165805 0.06597,-0.321028 0.179564,-0.433916"
           style="fill:#f2c831;fill-opacity:1;fill-rule:nonzero;stroke:none;stroke-width:0.03527778"
           id="path296"
           inkscape:connector-curvature="0"
           inkscape:export-filename="/home/lyas/Imágenes/imagenes-card-memory/borde_1.png"
           inkscape:export-xdpi="0.18182001"
           inkscape:export-ydpi="0.18182001" />
        <path
           d="m 29.118732,109.46459 2.340328,-2.35408 2.340328,2.35408 -2.340328,2.35444 -2.340328,-2.35444"
           style="fill:#f1c732;fill-opacity:1;fill-rule:nonzero;stroke:none;stroke-width:0.03527778"
           id="path298"
           inkscape:connector-curvature="0"
           inkscape:export-filename="/home/lyas/Imágenes/imagenes-card-memory/borde_1.png"
           inkscape:export-xdpi="0.18182001"
           inkscape:export-ydpi="0.18182001" />
        <path
           d="m 29.118732,104.75607 2.340328,-2.35444 2.340328,2.35444 -2.340328,2.35444 -2.340328,-2.35444"
           style="fill:#f1c732;fill-opacity:1;fill-rule:nonzero;stroke:none;stroke-width:0.03527778"
           id="path300"
           inkscape:connector-curvature="0"
           inkscape:export-filename="/home/lyas/Imágenes/imagenes-card-memory/borde_1.png"
           inkscape:export-xdpi="0.18182001"
           inkscape:export-ydpi="0.18182001" />
        <path
           d="m 29.118732,79.172624 2.340328,-2.35444 2.340328,2.35444 -2.340328,2.35444 -2.340328,-2.35444"
           style="fill:#f1c732;fill-opacity:1;fill-rule:nonzero;stroke:none;stroke-width:0.03527778"
           id="path302"
           inkscape:connector-curvature="0"
           inkscape:export-filename="/home/lyas/Imágenes/imagenes-card-memory/borde_1.png"
           inkscape:export-xdpi="0.18182001"
           inkscape:export-ydpi="0.18182001" />
        <path
           d="m 29.118732,74.464451 2.340328,-2.354437 2.340328,2.354437 -2.340328,2.354088 -2.340328,-2.354088"
           style="fill:#f1c732;fill-opacity:1;fill-rule:nonzero;stroke:none;stroke-width:0.03527778"
           id="path304"
           inkscape:connector-curvature="0"
           inkscape:export-filename="/home/lyas/Imágenes/imagenes-card-memory/borde_1.png"
           inkscape:export-xdpi="0.18182001"
           inkscape:export-ydpi="0.18182001" />
        <path
           d="m 31.45906,59.300299 c -0.32385,0 -0.585964,0.261057 -0.585964,0.58561 v 56.493481 c 0,0.32385 0.262114,0.58596 0.585964,0.58596 0.32385,0 0.586316,-0.26211 0.586316,-0.58596 V 59.885909 c 0,-0.324553 -0.262466,-0.58561 -0.586316,-0.58561"
           style="fill:#f1c732;fill-opacity:1;fill-rule:nonzero;stroke:none;stroke-width:0.03527778"
           id="path306"
           inkscape:connector-curvature="0"
           inkscape:export-filename="/home/lyas/Imágenes/imagenes-card-memory/borde_1.png"
           inkscape:export-xdpi="0.18182001"
           inkscape:export-ydpi="0.18182001" />
        <path
           d="m 99.413232,43.732216 -2.35444,-2.338916 2.35444,-2.342444 2.354088,2.342444 -2.354088,2.338916"
           style="fill:#f3c930;fill-opacity:1;fill-rule:nonzero;stroke:none;stroke-width:0.03527778"
           id="path308"
           inkscape:connector-curvature="0"
           inkscape:export-filename="/home/lyas/Imágenes/imagenes-card-memory/borde_1.png"
           inkscape:export-xdpi="0.18182001"
           inkscape:export-ydpi="0.18182001" />
        <path
           d="m 94.704707,43.732216 -2.35444,-2.338916 2.35444,-2.342444 2.354437,2.342444 -2.354437,2.338916"
           style="fill:#f3c930;fill-opacity:1;fill-rule:nonzero;stroke:none;stroke-width:0.03527778"
           id="path310"
           inkscape:connector-curvature="0"
           inkscape:export-filename="/home/lyas/Imágenes/imagenes-card-memory/borde_1.png"
           inkscape:export-xdpi="0.18182001"
           inkscape:export-ydpi="0.18182001" />
        <path
           d="m 69.120908,43.732216 -2.354437,-2.338916 2.354437,-2.342444 2.35444,2.342444 -2.35444,2.338916"
           style="fill:#f3c930;fill-opacity:1;fill-rule:nonzero;stroke:none;stroke-width:0.03527778"
           id="path312"
           inkscape:connector-curvature="0"
           inkscape:export-filename="/home/lyas/Imágenes/imagenes-card-memory/borde_1.png"
           inkscape:export-xdpi="0.18182001"
           inkscape:export-ydpi="0.18182001" />
        <path
           d="m 64.412738,43.732216 -2.35444,-2.338916 2.35444,-2.342444 2.354437,2.342444 -2.354437,2.338916"
           style="fill:#f3c930;fill-opacity:1;fill-rule:nonzero;stroke:none;stroke-width:0.03527778"
           id="path314"
           inkscape:connector-curvature="0"
           inkscape:export-filename="/home/lyas/Imágenes/imagenes-card-memory/borde_1.png"
           inkscape:export-xdpi="0.18182001"
           inkscape:export-ydpi="0.18182001" />
        <path
           d="M 106.32768,40.807689 H 49.834548 c -0.32385,0 -0.586316,0.261055 -0.586316,0.585611 0,0.324555 0.262466,0.585611 0.586316,0.585611 h 56.493132 c 0.32385,0 0.58631,-0.261056 0.58631,-0.585611 0,-0.324556 -0.26246,-0.585611 -0.58631,-0.585611"
           style="fill:#f3c930;fill-opacity:1;fill-rule:nonzero;stroke:none;stroke-width:0.03527778"
           id="path316"
           inkscape:connector-curvature="0"
           inkscape:export-filename="/home/lyas/Imágenes/imagenes-card-memory/borde_1.png"
           inkscape:export-xdpi="0.18182001"
           inkscape:export-ydpi="0.18182001" />
        <path
           d="m 23.143383,34.320106 c -0.100542,-0.03175 -0.206728,-0.05645 -0.315736,-0.0635 -0.339373,-0.02469 -0.66922,0.08114 -0.928864,0.303389 -0.370064,0.3175 -0.418748,0.874889 -0.108656,1.245305 0.08855,0.105834 0.24765,0.176389 0.40887,0.179917 0.248355,0.0071 0.424744,-0.07408 0.496005,-0.225778 0.05574,-0.119944 0.03775,-0.257528 -0.04586,-0.356305 -0.23495,-0.275167 -0.202142,-0.691445 0.07373,-0.924278 0.122061,-0.105834 0.271638,-0.155222 0.420511,-0.15875 z m 2.288822,11.447638 c -0.701322,-0.702028 -1.153231,-1.622778 -1.263297,-2.63525 l -0.01341,-0.123472 c -0.135466,-0.987778 -0.0056,-2.363611 0.349956,-3.661833 0.718255,-2.550583 -0.271286,-4.025194 -0.637822,-4.462639 0.220133,0.4445 0.231775,0.973667 0.01376,1.435806 -0.296686,0.624416 -0.934156,0.991305 -1.705681,0.977194 -0.537633,-0.0071 -1.064683,-0.261055 -1.391355,-0.649111 -0.770467,-0.92075 -0.652992,-2.303639 0.262467,-3.086805 0.525638,-0.448028 1.193799,-0.66675 1.881011,-0.613834 0.677686,0.05292 1.296105,0.366889 1.739547,0.871361 0.275519,0.264584 2.119489,2.264834 1.10243,5.880805 -0.305152,1.114778 -0.425802,2.321278 -0.312561,3.146778 l 0.01588,0.141111 c 0.1143,1.044222 0.74542,1.954389 1.689453,2.434167 0.883356,0.448028 1.867958,0.430389 2.701572,-0.04939 0.0695,-0.03881 0.135467,-0.08114 0.20073,-0.123472 0.554214,-0.373945 0.9144,-0.970139 1.011414,-1.68275 0.138995,-1.026584 -0.183444,-1.859139 -0.881239,-2.293056 -0.618066,-0.384527 -1.408288,-0.370416 -2.014008,0.03881 -0.288572,0.197555 -0.485775,0.522111 -0.53975,0.892528 -0.0829,0.564444 0.0822,1.023055 0.447675,1.252361 0.3175,0.201083 0.7239,0.1905 1.036462,-0.01764 0.287513,-0.197555 0.364772,-0.585611 0.172155,-0.871361 -0.202494,-0.303389 -0.122767,-0.709083 0.1778,-0.913694 0.300566,-0.201084 0.708378,-0.123473 0.910519,0.179916 0.596195,0.881945 0.360892,2.091972 -0.525639,2.691695 -0.742597,0.500944 -1.711324,0.518583 -2.468738,0.04233 -0.817034,-0.511528 -1.206853,-1.464028 -1.048809,-2.554111 0.107598,-0.733778 0.509764,-1.386417 1.103842,-1.788583 1.033992,-0.6985 2.384778,-0.723195 3.440994,-0.06703 1.143706,0.709083 1.698272,2.049639 1.488722,3.584222 -0.145697,1.072444 -0.722841,2.017889 -1.582561,2.596444 -0.09384,0.0635 -0.184855,0.119945 -0.277283,0.172861 -1.222727,0.702028 -2.662414,0.733778 -3.948289,0.08114 -0.426861,-0.218722 -0.808919,-0.497416 -1.135944,-0.8255"
           style="fill:#f2c831;fill-opacity:0.99215686;fill-rule:nonzero;stroke:none;stroke-width:0.03527778"
           id="path318"
           inkscape:connector-curvature="0"
           inkscape:export-filename="/home/lyas/Imágenes/imagenes-card-memory/borde_1.png"
           inkscape:export-xdpi="0.18182001"
           inkscape:export-ydpi="0.18182001" />
        <path
           d="m 25.757113,31.889467 -0.02752,-0.02469 c -0.370063,-0.310444 -0.928158,-0.261055 -1.244247,0.109362 -0.221544,0.257527 -0.328789,0.589138 -0.303036,0.927805 0.0081,0.109361 0.03034,0.215195 0.06526,0.313972 0.0011,-0.148166 0.05221,-0.296333 0.156281,-0.419805 0.23495,-0.275167 0.649463,-0.306917 0.925336,-0.07056 0.09772,0.08114 0.237419,0.09878 0.3556,0.04586 0.150989,-0.07408 0.231422,-0.250472 0.226836,-0.497416 -0.0025,-0.148167 -0.06068,-0.289278 -0.154517,-0.384528 z m -2.140303,2.734028 c -0.433563,-0.433917 -0.694972,-1.001889 -0.74295,-1.61925 -0.05292,-0.687917 0.1651,-1.358195 0.613481,-1.883834 0.782108,-0.913694 2.165703,-1.033639 3.085042,-0.261055 0.399697,0.331611 0.642055,0.853722 0.650875,1.389944 0.01411,0.772584 -0.351367,1.411111 -0.9779,1.707445 -0.460728,0.218722 -0.990953,0.204611 -1.4351,-0.01411 0.429683,0.359833 1.903941,1.358194 4.458758,0.638527 1.302808,-0.356305 2.677935,-0.486833 3.681941,-0.34925 l 0.105128,0.01058 c 1.485547,0.162278 2.779536,1.058334 3.461455,2.398889 0.652992,1.287639 0.623359,2.726972 -0.08149,3.951111 -0.05186,0.09172 -0.109009,0.183445 -0.168628,0.271639 -0.58032,0.864306 -1.527175,1.439333 -2.599972,1.5875 -1.534936,0.208139 -2.874081,-0.345722 -3.584575,-1.488722 -0.656167,-1.058333 -0.629355,-2.409472 0.0695,-3.443111 0.401108,-0.592667 1.053042,-0.994833 1.788583,-1.104195 1.087261,-0.155222 2.039056,0.232834 2.554111,1.051278 0.475192,0.754945 0.457906,1.725083 -0.04445,2.465917 -0.599369,0.889 -1.80728,1.125361 -2.691694,0.529166 -0.300567,-0.204611 -0.380294,-0.610305 -0.1778,-0.910166 0.202847,-0.303389 0.610305,-0.381 0.910872,-0.179917 0.28575,0.194028 0.676628,0.116417 0.872067,-0.172861 0.210961,-0.310444 0.218369,-0.719667 0.0194,-1.037167 -0.230364,-0.363361 -0.686859,-0.529166 -1.253067,-0.4445 -0.371475,0.05292 -0.696031,0.250473 -0.891117,0.53975 -0.409222,0.60325 -0.42545,1.393473 -0.04198,2.010834 0.436386,0.6985 1.270352,1.023055 2.293055,0.881944 0.712611,-0.09525 1.310922,-0.455083 1.685572,-1.012472 0.04128,-0.0635 0.0829,-0.130528 0.121356,-0.197556 0.481187,-0.836083 0.498826,-1.820333 0.05044,-2.702277 -0.480483,-0.945445 -1.389591,-1.576917 -2.433461,-1.689806 l -0.122767,-0.01411 c -0.844197,-0.116417 -2.051755,0.0071 -3.171472,0.313972 -3.608562,1.012471 -5.607754,-0.821974 -5.875865,-1.107724 -0.04374,-0.03528 -0.08608,-0.07761 -0.127353,-0.116416"
           style="fill:#f2c831;fill-opacity:1;fill-rule:nonzero;stroke:none;stroke-width:0.03527778"
           id="path320"
           inkscape:connector-curvature="0"
           inkscape:export-filename="/home/lyas/Imágenes/imagenes-card-memory/borde_1.png"
           inkscape:export-xdpi="0.18182001"
           inkscape:export-ydpi="0.18182001" />
      </g>
    </g>
  </g>
</svg>
